<svg width="173" height="32" viewBox="0 0 173 32" fill="none" xmlns="http://www.w3.org/2000/svg">
<path d="M20.9869 10.4561H10.4934V20.9115H20.9869V10.4561Z" fill="#44CF8C"/>
<path fill-rule="evenodd" clip-rule="evenodd" d="M31.4806 20.9189C31.4806 26.6916 26.7807 31.3744 20.9871 31.3744V20.9189H31.4806Z" fill="#44CF8C"/>
<path fill-rule="evenodd" clip-rule="evenodd" d="M0 20.9189C0 26.6916 4.69983 31.3744 10.4935 31.3744V20.9189H0Z" fill="#44CF8C"/>
<path fill-rule="evenodd" clip-rule="evenodd" d="M31.4806 10.4555C31.4806 4.6828 26.7807 0 20.9871 0V10.4555H31.4806Z" fill="#44CF8C"/>
<path fill-rule="evenodd" clip-rule="evenodd" d="M0 10.4555C0 4.6828 4.69983 0 10.4935 0V10.4555H0Z" fill="#44CF8C"/>
<path d="M166.735 19.5808C167.837 19.5808 168.749 19.2125 169.489 18.4759C170.228 17.7092 170.598 16.7922 170.598 15.7098C170.598 14.6274 170.228 13.7029 169.489 12.9663C168.749 12.2146 167.829 11.8388 166.735 11.8388C165.641 11.8388 164.736 12.2146 164.004 12.9663C163.265 13.7029 162.895 14.6199 162.895 15.7098C162.895 16.7997 163.265 17.7167 164.004 18.4759C164.744 19.2125 165.656 19.5808 166.735 19.5808ZM170.598 12.162V10.3054H172.484V21.1142H170.598V19.2576C169.67 20.6858 168.304 21.3998 166.494 21.3998C164.962 21.3998 163.665 20.8511 162.609 19.7537C161.537 18.6413 161.002 17.2958 161.002 15.7098C161.002 14.1238 161.537 12.8009 162.609 11.6885C163.68 10.576 164.977 10.0273 166.494 10.0273C168.304 10.0273 169.67 10.7414 170.598 12.1695V12.162ZM151.225 17.8896L157.237 10.2979H158.754V21.1067H156.89V13.515L150.878 21.1067H149.362V10.2979H151.225V17.8896ZM140.271 19.4004H143.741C144.292 19.4004 144.715 19.2726 145.009 19.0096C145.303 18.7465 145.454 18.3857 145.454 17.9046C145.454 17.4612 145.303 17.1079 145.009 16.8598C144.715 16.6043 144.292 16.484 143.741 16.484H140.271V19.4004ZM143.334 11.9816H140.271V14.8153H143.334C144.435 14.8153 144.986 14.3343 144.986 13.3647C144.986 12.395 144.435 11.9816 143.334 11.9816ZM145.658 15.552C146.774 16.0105 147.325 16.8523 147.325 18.0625C147.325 18.987 147.023 19.7236 146.412 20.2799C145.801 20.8361 144.948 21.1142 143.855 21.1142H138.431V10.3054H143.425C144.496 10.3054 145.333 10.5685 145.929 11.1022C146.533 11.6359 146.827 12.3499 146.827 13.2444C146.827 14.2817 146.435 15.0559 145.658 15.5595V15.552ZM129.815 19.5733C130.917 19.5733 131.837 19.205 132.569 18.4684C133.308 17.7017 133.678 16.7847 133.678 15.7023C133.678 14.6199 133.308 13.6954 132.569 12.9588C131.83 12.2071 130.909 11.8313 129.815 11.8313C128.722 11.8313 127.816 12.2071 127.085 12.9588C126.345 13.6954 125.976 14.6124 125.976 15.7023C125.976 16.7922 126.345 17.7092 127.085 18.4684C127.824 19.205 128.737 19.5733 129.815 19.5733ZM133.678 12.1545V10.2979H135.564V21.1067H133.678V19.2501C132.75 20.6782 131.385 21.3923 129.574 21.3923C128.043 21.3923 126.745 20.8436 125.689 19.7462C124.618 18.6337 124.082 17.2883 124.082 15.7023C124.082 14.1163 124.618 12.7934 125.689 11.681C126.76 10.5685 128.05 10.0198 129.574 10.0198C131.385 10.0198 132.75 10.7339 133.678 12.162V12.1545ZM119.186 15.567L123.154 21.0992H119.918L117.572 17.8144L115.203 21.0992H111.967L115.935 15.5895L112.14 10.2904H115.377L117.564 13.3421L119.752 10.2904H122.966L119.171 15.567H119.186ZM103.48 14.68H109.009C108.851 13.9735 108.527 13.4323 108.044 13.0565C107.561 12.6806 106.988 12.4927 106.316 12.4927C105.562 12.4927 104.943 12.6806 104.453 13.064C103.963 13.4473 103.638 13.981 103.48 14.6725V14.68ZM111.703 16.8448H103.525C103.887 18.1978 104.906 18.8743 106.588 18.8743C107.659 18.8743 108.466 18.5135 109.017 17.7919L111.273 19.0923C110.201 20.6331 108.625 21.4073 106.543 21.4073C104.747 21.4073 103.306 20.8661 102.228 19.7838C101.141 18.7014 100.598 17.3409 100.598 15.6948C100.598 14.0487 101.134 12.7257 102.205 11.6283C103.261 10.5309 104.634 9.98222 106.324 9.98222C107.931 9.98222 109.236 10.5309 110.254 11.6283C111.295 12.7257 111.816 14.0787 111.816 15.6948C111.816 15.9954 111.778 16.3788 111.71 16.8373L111.703 16.8448ZM90.4818 10.2904H100.093V12.9738H96.7055V21.0992H93.9067V12.9738H90.4818V10.2904ZM82.1533 17.837C82.7191 18.4007 83.4207 18.6788 84.2581 18.6788C85.0955 18.6788 85.797 18.4007 86.3628 17.837C86.9286 17.2732 87.2077 16.5592 87.2077 15.6948C87.2077 14.8304 86.9286 14.1163 86.3628 13.5526C85.797 12.9888 85.0955 12.7107 84.2581 12.7107C83.4207 12.7107 82.7191 12.9888 82.1533 13.5526C81.6026 14.1313 81.3311 14.8454 81.3311 15.6948C81.3311 16.5441 81.6026 17.2582 82.1533 17.837ZM88.3393 19.7612C87.2379 20.8586 85.88 21.4073 84.2581 21.4073C82.6362 21.4073 81.2783 20.8586 80.1769 19.7612C79.0755 18.6638 78.5247 17.3108 78.5247 15.6948C78.5247 14.0787 79.0755 12.7483 80.1769 11.6509C81.2933 10.5384 82.6512 9.98973 84.2581 9.98973C85.8649 9.98973 87.2228 10.546 88.3393 11.6509C89.4558 12.7633 90.0065 14.1088 90.0065 15.6948C90.0065 17.2808 89.4483 18.6488 88.3393 19.7612ZM69.1553 17.9046C69.7211 18.4684 70.4377 18.7465 71.3053 18.7465C72.1728 18.7465 72.8895 18.4684 73.4553 17.9046C74.0362 17.3259 74.3228 16.5968 74.3228 15.7023C74.3228 14.8078 74.0362 14.0787 73.4553 13.5225C72.8895 12.9437 72.1728 12.6581 71.3053 12.6581C70.4377 12.6581 69.7211 12.9437 69.1553 13.5225C68.5895 14.0862 68.3104 14.8153 68.3104 15.7023C68.3104 16.5892 68.5895 17.3334 69.1553 17.9046ZM71.8258 9.98973C73.2893 9.98973 74.534 10.546 75.56 11.6509C76.6011 12.7633 77.1216 14.1088 77.1216 15.6948C77.1216 17.2808 76.6011 18.6638 75.56 19.7612C74.5491 20.8586 73.3044 21.4073 71.8258 21.4073C70.3472 21.4073 69.1326 20.8812 68.3104 19.8289V25.4287H65.5116V10.2979H68.3104V11.5757C69.1326 10.5234 70.3095 9.99725 71.8258 9.99725V9.98973ZM56.5947 10.2904H64.0179V12.9738H59.3935V21.0992H56.5947V10.2904ZM46.0937 17.8971C46.6595 18.4609 47.3761 18.739 48.2437 18.739C49.1112 18.739 49.8279 18.4609 50.3937 17.8971C50.9746 17.3183 51.2612 16.5892 51.2612 15.6948C51.2612 14.8003 50.9746 14.0712 50.3937 13.515C49.8279 12.9362 49.1112 12.6506 48.2437 12.6506C47.3761 12.6506 46.6595 12.9362 46.0937 13.515C45.5279 14.0787 45.2488 14.8078 45.2488 15.6948C45.2488 16.5817 45.5279 17.3259 46.0937 17.8971ZM51.2612 11.5607V10.2829H54.06V21.0916H51.2612V19.8138C50.4239 20.8662 49.2395 21.3923 47.7232 21.3923C46.2068 21.3923 45.03 20.8436 43.9889 19.7462C42.963 18.6337 42.45 17.2808 42.45 15.6797C42.45 14.0787 42.963 12.7483 43.9889 11.6359C45.03 10.5234 46.2747 9.9747 47.7232 9.9747C49.2395 9.9747 50.4239 10.5009 51.2612 11.5532V11.5607ZM39.6965 19.5357C39.6965 20.0393 39.5154 20.4753 39.1533 20.8361C38.7912 21.1969 38.3612 21.3773 37.8482 21.3773C37.3353 21.3773 36.9053 21.1969 36.5432 20.8361C36.1811 20.4753 36 20.0469 36 19.5357C36 19.0246 36.1811 18.5962 36.5432 18.2354C36.9053 17.8746 37.3353 17.6942 37.8482 17.6942C38.3612 17.6942 38.7912 17.8746 39.1533 18.2354C39.5154 18.5962 39.6965 19.0246 39.6965 19.5357ZM39.6965 11.7937C39.6965 12.2973 39.5154 12.7333 39.1533 13.0941C38.7912 13.4549 38.3612 13.6352 37.8482 13.6352C37.3353 13.6352 36.9053 13.4549 36.5432 13.0941C36.1811 12.7333 36 12.3048 36 11.7937C36 11.2826 36.1811 10.8541 36.5432 10.4933C36.9053 10.1325 37.3353 9.95215 37.8482 9.95215C38.3612 9.95215 38.7912 10.1325 39.1533 10.4933C39.5154 10.8541 39.6965 11.2826 39.6965 11.7937Z" fill="white"/>
</svg>
